<mxfile host="65bd71144e">
    <diagram id="PwsL4PzN5joI9R-oSL1_" name="ページ1">
        <mxGraphModel dx="290" dy="235" grid="1" gridSize="10" guides="1" tooltips="1" connect="1" arrows="1" fold="1" page="1" pageScale="1" pageWidth="827" pageHeight="1169" math="0" shadow="0">
            <root>
                <mxCell id="0"/>
                <mxCell id="1" parent="0"/>
                <mxCell id="2" style="edgeStyle=none;html=1;exitX=0.5;exitY=1;exitDx=0;exitDy=0;exitPerimeter=0;entryX=0.5;entryY=0;entryDx=0;entryDy=0;endArrow=open;endFill=0;fontFamily=Lucida Console;fontSize=16;" parent="1" source="5" target="7" edge="1">
                    <mxGeometry relative="1" as="geometry"/>
                </mxCell>
                <mxCell id="3" style="edgeStyle=none;html=1;exitX=0.5;exitY=0;exitDx=0;exitDy=0;exitPerimeter=0;startArrow=open;startFill=0;endArrow=none;endFill=0;fontFamily=Lucida Console;fontSize=16;" parent="1" source="5" edge="1">
                    <mxGeometry relative="1" as="geometry">
                        <mxPoint x="280" y="130" as="targetPoint"/>
                    </mxGeometry>
                </mxCell>
                <mxCell id="23" style="edgeStyle=orthogonalEdgeStyle;html=1;exitX=1;exitY=0.5;exitDx=0;exitDy=0;exitPerimeter=0;endArrow=open;endFill=0;rounded=0;" edge="1" parent="1" source="5">
                    <mxGeometry relative="1" as="geometry">
                        <mxPoint x="280" y="361.0752425655242" as="targetPoint"/>
                        <Array as="points">
                            <mxPoint x="380" y="200"/>
                            <mxPoint x="380" y="340"/>
                            <mxPoint x="280" y="340"/>
                        </Array>
                    </mxGeometry>
                </mxCell>
                <mxCell id="5" value="&lt;font&gt;継続条件式&lt;/font&gt;" style="strokeWidth=1;html=1;shape=mxgraph.flowchart.decision;whiteSpace=wrap;fontSize=16;fontFamily=Lucida Console;" parent="1" vertex="1">
                    <mxGeometry x="210" y="170" width="140" height="60" as="geometry"/>
                </mxCell>
                <mxCell id="22" style="edgeStyle=orthogonalEdgeStyle;html=1;exitX=0.5;exitY=1;exitDx=0;exitDy=0;rounded=0;curved=0;endArrow=open;endFill=0;" edge="1" parent="1" source="7">
                    <mxGeometry relative="1" as="geometry">
                        <mxPoint x="280" y="150" as="targetPoint"/>
                        <Array as="points">
                            <mxPoint x="280" y="320"/>
                            <mxPoint x="190" y="320"/>
                            <mxPoint x="190" y="150"/>
                        </Array>
                    </mxGeometry>
                </mxCell>
                <mxCell id="7" value="処理" style="rounded=0;whiteSpace=wrap;html=1;fontSize=16;fontFamily=Lucida Console;" parent="1" vertex="1">
                    <mxGeometry x="220" y="260" width="120" height="40" as="geometry"/>
                </mxCell>
                <mxCell id="8" value="T" style="text;html=1;align=center;verticalAlign=middle;resizable=0;points=[];autosize=1;strokeColor=none;fillColor=none;fontSize=16;fontFamily=Lucida Console;" parent="1" vertex="1">
                    <mxGeometry x="250" y="225" width="30" height="30" as="geometry"/>
                </mxCell>
                <mxCell id="9" value="F" style="text;html=1;align=center;verticalAlign=middle;resizable=0;points=[];autosize=1;strokeColor=none;fillColor=none;fontSize=16;fontFamily=Lucida Console;" parent="1" vertex="1">
                    <mxGeometry x="340" y="170" width="30" height="30" as="geometry"/>
                </mxCell>
            </root>
        </mxGraphModel>
    </diagram>
</mxfile>